<svg width="20" height="20" viewBox="0 0 20 20" fill="none" xmlns="http://www.w3.org/2000/svg">
<path d="M10 0C8.02219 0 6.08879 0.58649 4.4443 1.6853C2.79981 2.78412 1.51809 4.3459 0.761209 6.17316C0.00433284 8.00043 -0.1937 10.0111 0.192152 11.9509C0.578004 13.8907 1.53041 15.6725 2.92894 17.0711C4.32746 18.4696 6.10929 19.422 8.0491 19.8078C9.98891 20.1937 11.9996 19.9957 13.8268 19.2388C15.6541 18.4819 17.2159 17.2002 18.3147 15.5557C19.4135 13.9112 20 11.9778 20 10C19.9971 7.34874 18.9425 4.80691 17.0678 2.93218C15.1931 1.05745 12.6513 0.00294095 10 0ZM10 17.7778C8.4617 17.7778 6.95795 17.3216 5.6789 16.467C4.39985 15.6123 3.40296 14.3976 2.81427 12.9764C2.22559 11.5552 2.07157 9.99137 2.37167 8.48263C2.67178 6.97389 3.41254 5.58802 4.50028 4.50028C5.58803 3.41254 6.97389 2.67178 8.48263 2.37167C9.99137 2.07156 11.5552 2.22559 12.9764 2.81427C14.3976 3.40295 15.6124 4.39985 16.467 5.6789C17.3216 6.95795 17.7778 8.4617 17.7778 10C17.7756 12.0621 16.9554 14.0391 15.4973 15.4973C14.0391 16.9554 12.0621 17.7756 10 17.7778ZM13.7491 9.95463C13.8527 10.0579 13.9348 10.1805 13.9909 10.3156C14.047 10.4506 14.0759 10.5954 14.0759 10.7417C14.0759 10.8879 14.047 11.0327 13.9909 11.1678C13.9348 11.3028 13.8527 11.4255 13.7491 11.5287L10.7861 14.4917C10.6829 14.5952 10.5602 14.6774 10.4252 14.7335C10.2901 14.7896 10.1453 14.8185 9.99908 14.8185C9.85284 14.8185 9.70804 14.7896 9.57298 14.7335C9.43792 14.6774 9.31526 14.5952 9.21204 14.4917L6.24908 11.5287C6.14572 11.4253 6.06374 11.3026 6.0078 11.1676C5.95187 11.0326 5.92308 10.8878 5.92308 10.7417C5.92308 10.5955 5.95187 10.4508 6.0078 10.3157C6.06374 10.1807 6.14572 10.058 6.24908 9.95463C6.35243 9.85127 6.47513 9.76929 6.61017 9.71335C6.74521 9.65742 6.88995 9.62863 7.03611 9.62863C7.18228 9.62863 7.32702 9.65742 7.46206 9.71335C7.5971 9.76929 7.7198 9.85127 7.82315 9.95463L8.88889 11.0185V6.2963C8.88889 6.00161 9.00595 5.71899 9.21433 5.51062C9.4227 5.30225 9.70532 5.18518 10 5.18518C10.2947 5.18518 10.5773 5.30225 10.7857 5.51062C10.9941 5.71899 11.1111 6.00161 11.1111 6.2963V11.0185L12.1769 9.95185C12.2802 9.84873 12.4029 9.76699 12.5379 9.71131C12.6729 9.65563 12.8175 9.62711 12.9635 9.62736C13.1096 9.62762 13.2541 9.65666 13.3889 9.71281C13.5237 9.76897 13.6461 9.85114 13.7491 9.95463Z" fill="#7950F2"/>
</svg>
