<svg width="20" height="20" viewBox="0 0 20 20" fill="none" xmlns="http://www.w3.org/2000/svg">
<path d="M10 20C11.9778 20 13.9112 19.4135 15.5557 18.3147C17.2002 17.2159 18.4819 15.6541 19.2388 13.8268C19.9957 11.9996 20.1937 9.98891 19.8078 8.0491C19.422 6.10929 18.4696 4.32746 17.0711 2.92893C15.6725 1.53041 13.8907 0.578003 11.9509 0.192153C10.0111 -0.1937 8.00042 0.00433264 6.17316 0.761209C4.3459 1.51808 2.78412 2.79981 1.6853 4.4443C0.586488 6.08879 -1.04713e-06 8.02219 -8.74228e-07 10C0.00294049 12.6513 1.05745 15.1931 2.93218 17.0678C4.8069 18.9425 7.34874 19.9971 10 20ZM10 2.22223C11.5383 2.22223 13.042 2.67839 14.3211 3.53302C15.6001 4.38765 16.597 5.60237 17.1857 7.02358C17.7744 8.44478 17.9284 10.0086 17.6283 11.5174C17.3282 13.0261 16.5875 14.412 15.4997 15.4997C14.412 16.5875 13.0261 17.3282 11.5174 17.6283C10.0086 17.9284 8.44477 17.7744 7.02357 17.1857C5.60237 16.5971 4.38765 15.6002 3.53301 14.3211C2.67838 13.0421 2.22222 11.5383 2.22222 10C2.22443 7.93789 3.04458 5.96086 4.50271 4.50272C5.96085 3.04458 7.93788 2.22443 10 2.22223ZM6.25092 10.0454C6.14734 9.94215 6.06515 9.81949 6.00907 9.68443C5.95299 9.54937 5.92412 9.40457 5.92412 9.25834C5.92412 9.1121 5.95299 8.9673 6.00907 8.83224C6.06515 8.69718 6.14734 8.57453 6.25092 8.4713L9.21388 5.50834C9.31711 5.40475 9.43977 5.32256 9.57483 5.26648C9.70988 5.2104 9.85468 5.18154 10.0009 5.18154C10.1472 5.18154 10.292 5.2104 10.427 5.26648C10.5621 5.32256 10.6847 5.40475 10.788 5.50834L13.7509 8.4713C13.8543 8.57466 13.9363 8.69735 13.9922 8.83239C14.0481 8.96743 14.0769 9.11217 14.0769 9.25834C14.0769 9.4045 14.0481 9.54924 13.9922 9.68428C13.9363 9.81932 13.8543 9.94202 13.7509 10.0454C13.6476 10.1487 13.5249 10.2307 13.3898 10.2866C13.2548 10.3426 13.1101 10.3714 12.9639 10.3714C12.8177 10.3714 12.673 10.3426 12.5379 10.2866C12.4029 10.2307 12.2802 10.1487 12.1768 10.0454L11.1111 8.98148L11.1111 13.7037C11.1111 13.9984 10.994 14.281 10.7857 14.4894C10.5773 14.6978 10.2947 14.8148 10 14.8148C9.70531 14.8148 9.4227 14.6978 9.21432 14.4894C9.00595 14.281 8.88889 13.9984 8.88889 13.7037L8.88889 8.98148L7.82315 10.0482C7.71977 10.1513 7.59708 10.233 7.4621 10.2887C7.32711 10.3444 7.18248 10.3729 7.03646 10.3726C6.89044 10.3724 6.74591 10.3433 6.61112 10.2872C6.47633 10.231 6.35393 10.1489 6.25092 10.0454Z" fill="#7950F2"/>
</svg>
