<svg width="20" height="17" viewBox="0 0 20 17" fill="none" xmlns="http://www.w3.org/2000/svg">
<path d="M11.0366 9.48066V12.7499C11.0366 13.0101 10.9276 13.2595 10.7336 13.4435C10.5396 13.6274 10.2765 13.7307 10.0022 13.7307C9.72788 13.7307 9.46478 13.6274 9.27079 13.4435C9.07681 13.2595 8.96782 13.0101 8.96782 12.7499V9.48066C8.96782 9.22054 9.07681 8.97107 9.27079 8.78714C9.46478 8.60321 9.72788 8.49987 10.0022 8.49987C10.2765 8.49987 10.5396 8.60321 10.7336 8.78714C10.9276 8.97107 11.0366 9.22054 11.0366 9.48066ZM19.9858 7.08101L18.7945 15.5811C18.7382 15.974 18.5337 16.3343 18.2188 16.5951C17.9039 16.856 17.4999 16.9999 17.0817 17H2.92269C2.5047 16.9997 2.10095 16.8559 1.7861 16.5953C1.47124 16.3346 1.26657 15.9746 1.20992 15.5819L0.0152008 7.08182C-0.0173884 6.85067 0.00256269 6.61558 0.0737144 6.39235C0.144866 6.16911 0.265571 5.96289 0.427723 5.78755C0.589876 5.6122 0.789721 5.47178 1.01384 5.37571C1.23796 5.27965 1.48116 5.23017 1.72711 5.23059H4.70529L9.22642 0.334847C9.32351 0.229666 9.44318 0.145376 9.57743 0.0876262C9.71167 0.0298761 9.85738 0 10.0048 0C10.1522 0 10.2979 0.0298761 10.4322 0.0876262C10.5664 0.145376 10.6861 0.229666 10.7832 0.334847L15.2991 5.23059H18.2773C18.5228 5.23077 18.7655 5.28066 18.989 5.37693C19.2125 5.4732 19.4118 5.61363 19.5734 5.78882C19.7351 5.964 19.8555 6.16991 19.9264 6.39276C19.9974 6.61561 20.0173 6.85026 19.9849 7.08101H19.9858ZM7.45503 5.23059H12.5503L10.0022 2.46969L7.45503 5.23059ZM17.8851 7.19216H2.12104L3.22439 15.0384H16.78L17.8851 7.19216ZM13.4571 9.3834L13.1123 12.6527C13.0851 12.9115 13.1674 13.1699 13.3412 13.3712C13.515 13.5724 13.766 13.7 14.0389 13.7258C14.0734 13.7258 14.1087 13.7307 14.1432 13.7307C14.3995 13.7303 14.6465 13.6397 14.8363 13.4765C15.0261 13.3132 15.1453 13.089 15.1707 12.8472L15.5155 9.57792C15.5307 9.44894 15.5187 9.31839 15.4803 9.19383C15.4419 9.06926 15.3778 8.95317 15.2917 8.85226C15.2057 8.75136 15.0993 8.66766 14.9789 8.60601C14.8584 8.54436 14.7263 8.50599 14.5901 8.49312C14.4539 8.48025 14.3164 8.49314 14.1854 8.53103C14.0545 8.56893 13.9329 8.63108 13.8275 8.71389C13.7221 8.7967 13.6351 8.89852 13.5715 9.01344C13.5079 9.12837 13.469 9.25411 13.4571 9.3834ZM6.55081 9.3834C6.5206 9.12689 6.38497 8.89201 6.17332 8.72969C5.96168 8.56737 5.69109 8.4907 5.42022 8.5163C5.14936 8.54189 4.90005 8.6677 4.72636 8.86643C4.55267 9.06516 4.4686 9.3208 4.49238 9.57792L4.83717 12.8472C4.86258 13.089 4.98175 13.3132 5.17158 13.4765C5.36142 13.6397 5.60839 13.7303 5.86466 13.7307C5.89828 13.7307 5.93362 13.7307 5.9681 13.7258C6.24106 13.7 6.49202 13.5724 6.6658 13.3712C6.83957 13.1699 6.92193 12.9115 6.89474 12.6527L6.55081 9.3834Z" fill="#7950F2"/>
</svg>
