<svg width="20" height="15" viewBox="0 0 20 15" fill="none" xmlns="http://www.w3.org/2000/svg">
<path d="M14.8387 4.08505V3.91304C14.8387 2.7212 13.9653 1.66712 12.3782 0.945652C11.0379 0.335869 9.27419 0 7.41935 0C5.56452 0 3.80081 0.335869 2.46048 0.945652C0.873387 1.66712 0 2.7212 0 3.91304V7.17391C0 8.36576 0.873387 9.41984 2.46048 10.1413C3.32296 10.5186 4.23116 10.7785 5.16129 10.9141V11.087C5.16129 12.2788 6.03468 13.3329 7.62177 14.0543C8.9621 14.6641 10.7258 15 12.5806 15C14.4355 15 16.1992 14.6641 17.5395 14.0543C19.1266 13.3329 20 12.2788 20 11.087V7.82609C20 6.0212 17.9605 4.57174 14.8387 4.08505ZM18.0645 7.82609C18.0645 8.45788 16.3089 9.6587 13.0798 9.77283C14.2202 9.08152 14.8387 8.17663 14.8387 7.17391V6.06848C16.9258 6.45245 18.0645 7.29457 18.0645 7.82609ZM8.33629 9.10027C8.04355 9.11984 7.7379 9.13043 7.41935 9.13043C7.00968 9.13043 6.62177 9.1125 6.25564 9.08071C6.22515 9.07664 6.19446 9.07419 6.16371 9.07337C6.04194 9.06196 5.92177 9.04891 5.80645 9.03424V7.73886C6.34216 7.79704 6.88056 7.82616 7.41935 7.82609C7.95814 7.82616 8.49655 7.79704 9.03226 7.73886V9.03424C8.83145 9.0587 8.62339 9.07989 8.40726 9.09538C8.3871 9.0962 8.35968 9.09783 8.33629 9.10027ZM12.9032 6.61467V7.17391C12.9032 7.56359 12.2355 8.16929 10.9677 8.6038V7.38098C11.4504 7.25292 11.9221 7.08581 12.3782 6.88125C12.5632 6.79701 12.7382 6.70815 12.9032 6.61467ZM7.41935 1.95652C10.9677 1.95652 12.9032 3.24864 12.9032 3.91304C12.9032 4.57745 10.9677 5.86957 7.41935 5.86957C3.87097 5.86957 1.93548 4.57745 1.93548 3.91304C1.93548 3.24864 3.87097 1.95652 7.41935 1.95652ZM1.93548 7.17391V6.61467C2.10108 6.70761 2.27608 6.7962 2.46048 6.88043C2.91662 7.08499 3.3883 7.25211 3.87097 7.38016V8.60299C2.60323 8.16929 1.93548 7.56359 1.93548 7.17391ZM7.09677 11.087C7.20403 11.087 7.31129 11.087 7.41935 11.087C7.71183 11.087 8.00134 11.0783 8.2879 11.0609C8.52715 11.1462 8.77527 11.2239 9.03226 11.294V12.5168C7.76452 12.0823 7.09677 11.4766 7.09677 11.087ZM10.9677 12.9473V11.6527C11.5035 11.7107 12.0419 11.7396 12.5806 11.7391C13.1194 11.7392 13.6578 11.7101 14.1935 11.6519V12.9473C13.122 13.0755 12.0393 13.0755 10.9677 12.9473ZM16.129 12.5168V11.294C16.6117 11.166 17.0834 10.9989 17.5395 10.7943C17.7245 10.7106 17.8995 10.622 18.0645 10.5285V11.087C18.0645 11.4766 17.3968 12.0823 16.129 12.5168Z" fill="#7950F2"/>
</svg>
