<svg width="21" height="20" viewBox="0 0 21 20" fill="none" xmlns="http://www.w3.org/2000/svg">
<path d="M10.75 0C8.77219 0 6.83879 0.58649 5.1943 1.6853C3.54981 2.78412 2.26809 4.3459 1.51121 6.17316C0.754333 8.00043 0.5563 10.0111 0.942152 11.9509C1.328 13.8907 2.28041 15.6725 3.67894 17.0711C5.07746 18.4696 6.85929 19.422 8.7991 19.8078C10.7389 20.1937 12.7496 19.9957 14.5768 19.2388C16.4041 18.4819 17.9659 17.2002 19.0647 15.5557C20.1635 13.9112 20.75 11.9778 20.75 10C20.7471 7.34874 19.6925 4.80691 17.8178 2.93218C15.9431 1.05745 13.4013 0.00294095 10.75 0ZM10.75 17.7778C9.2117 17.7778 7.70795 17.3216 6.4289 16.467C5.14985 15.6123 4.15296 14.3976 3.56427 12.9764C2.97559 11.5552 2.82157 9.99137 3.12167 8.48263C3.42178 6.97389 4.16254 5.58802 5.25028 4.50028C6.33803 3.41254 7.72389 2.67178 9.23263 2.37167C10.7414 2.07156 12.3052 2.22559 13.7264 2.81427C15.1476 3.40295 16.3624 4.39985 17.217 5.6789C18.0716 6.95795 18.5278 8.4617 18.5278 10C18.5256 12.0621 17.7054 14.0391 16.2473 15.4973C14.7891 16.9554 12.8121 17.7756 10.75 17.7778ZM14.4991 9.95463C14.6027 10.0579 14.6848 10.1805 14.7409 10.3156C14.797 10.4506 14.8259 10.5954 14.8259 10.7417C14.8259 10.8879 14.797 11.0327 14.7409 11.1678C14.6848 11.3028 14.6027 11.4255 14.4991 11.5287L11.5361 14.4917C11.4329 14.5952 11.3102 14.6774 11.1752 14.7335C11.0401 14.7896 10.8953 14.8185 10.7491 14.8185C10.6028 14.8185 10.458 14.7896 10.323 14.7335C10.1879 14.6774 10.0653 14.5952 9.96204 14.4917L6.99908 11.5287C6.89572 11.4253 6.81374 11.3026 6.7578 11.1676C6.70187 11.0326 6.67308 10.8878 6.67308 10.7417C6.67308 10.5955 6.70187 10.4508 6.7578 10.3157C6.81374 10.1807 6.89572 10.058 6.99908 9.95463C7.10243 9.85127 7.22513 9.76929 7.36017 9.71335C7.49521 9.65742 7.63995 9.62863 7.78611 9.62863C7.93228 9.62863 8.07702 9.65742 8.21206 9.71335C8.3471 9.76929 8.4698 9.85127 8.57315 9.95463L9.63889 11.0185V6.2963C9.63889 6.00161 9.75595 5.71899 9.96433 5.51062C10.1727 5.30225 10.4553 5.18518 10.75 5.18518C11.0447 5.18518 11.3273 5.30225 11.5357 5.51062C11.7441 5.71899 11.8611 6.00161 11.8611 6.2963V11.0185L12.9269 9.95185C13.0302 9.84873 13.1529 9.76699 13.2879 9.71131C13.4229 9.65563 13.5675 9.62711 13.7135 9.62736C13.8596 9.62762 14.0041 9.65666 14.1389 9.71281C14.2737 9.76897 14.3961 9.85114 14.4991 9.95463Z" fill="#2D9056"/>
</svg>
