<svg width="42" height="33" viewBox="0 0 42 33" fill="none" xmlns="http://www.w3.org/2000/svg">
<path d="M32.8125 15.18C32.8125 15.7021 32.6585 16.2126 32.3701 16.6467C32.0817 17.0809 31.6717 17.4192 31.192 17.619C30.7124 17.8189 30.1846 17.8711 29.6754 17.7693C29.1662 17.6674 28.6985 17.416 28.3313 17.0468C27.9642 16.6776 27.7142 16.2071 27.6129 15.695C27.5117 15.1829 27.5636 14.6521 27.7623 14.1697C27.961 13.6873 28.2974 13.275 28.7291 12.9849C29.1608 12.6948 29.6683 12.54 30.1875 12.54C30.8837 12.54 31.5514 12.8181 32.0437 13.3132C32.5359 13.8083 32.8125 14.4798 32.8125 15.18ZM25.5938 5.94H19.0312C18.5091 5.94 18.0083 6.14861 17.6391 6.51993C17.2699 6.89125 17.0625 7.39487 17.0625 7.92C17.0625 8.44513 17.2699 8.94875 17.6391 9.32007C18.0083 9.69139 18.5091 9.9 19.0312 9.9H25.5938C26.1159 9.9 26.6167 9.69139 26.9859 9.32007C27.3551 8.94875 27.5625 8.44513 27.5625 7.92C27.5625 7.39487 27.3551 6.89125 26.9859 6.51993C26.6167 6.14861 26.1159 5.94 25.5938 5.94ZM42 13.86V19.14C42.0002 20.3523 41.5266 21.516 40.6813 22.3803C39.8361 23.2446 38.6869 23.7401 37.4817 23.76L34.9781 30.8105C34.7504 31.4515 34.3311 32.006 33.7777 32.3979C33.2244 32.7899 32.564 33.0002 31.8872 33H29.8003C29.1235 33.0002 28.4631 32.7899 27.9098 32.3979C27.3564 32.006 26.9371 31.4515 26.7094 30.8105L26.5453 30.36H18.0748L17.9107 30.8105C17.6832 31.4507 17.2647 32.0046 16.7123 32.3965C16.1599 32.7884 15.5007 32.9992 14.8247 33H12.7378C12.061 33.0002 11.4006 32.7899 10.8473 32.3979C10.2939 32.006 9.87463 31.4515 9.64687 30.8105L7.62891 25.1262C5.90404 23.1295 4.73021 20.7127 4.22461 18.117C4.03728 18.425 3.93794 18.7789 3.9375 19.14C3.9375 19.6651 3.73008 20.1687 3.36087 20.5401C2.99165 20.9114 2.49089 21.12 1.96875 21.12C1.44661 21.12 0.945846 20.9114 0.576634 20.5401C0.207421 20.1687 0 19.6651 0 19.14C0.00186254 17.8955 0.391594 16.6829 1.11438 15.6727C1.83716 14.6625 2.85662 13.9057 4.02937 13.5086C4.44298 9.79656 6.201 6.36765 8.968 3.87609C11.735 1.38453 15.3173 0.00474055 19.0312 0H36.0938C36.6159 0 37.1167 0.208607 37.4859 0.579929C37.8551 0.951251 38.0625 1.45487 38.0625 1.98C38.0625 2.50513 37.8551 3.00875 37.4859 3.38007C37.1167 3.75139 36.6159 3.96 36.0938 3.96H34.4531C36.0341 5.40753 37.2912 7.17632 38.1412 9.14925L38.2102 9.31425C39.2712 9.50557 40.2318 10.0654 40.9244 10.8962C41.6171 11.7269 41.9977 12.7759 42 13.86ZM38.0625 13.86C38.0625 13.685 37.9934 13.5171 37.8703 13.3933C37.7472 13.2695 37.5803 13.2 37.4062 13.2H36.8058C36.3866 13.2 35.9783 13.0654 35.6404 12.8158C35.3025 12.5662 35.0527 12.2147 34.9273 11.8123C34.2146 9.53445 32.7979 7.54465 30.8832 6.1324C28.9685 4.72015 26.6557 3.95911 24.2812 3.96H19.0312C16.8661 3.95984 14.7477 4.5933 12.9344 5.78313C11.1211 6.97296 9.69123 8.66774 8.81915 10.6608C7.94708 12.6538 7.6705 14.859 8.02315 17.0075C8.37579 19.1559 9.34242 21.1547 10.8052 22.7601C10.9827 22.9539 11.1194 23.1817 11.2071 23.43L13.2005 29.04H14.362L14.8329 27.72C14.9685 27.3343 15.2195 27.0004 15.5515 26.764C15.8834 26.5276 16.2801 26.4005 16.6868 26.4H27.9382C28.3449 26.4005 28.7416 26.5276 29.0735 26.764C29.4055 27.0004 29.6565 27.3343 29.7921 27.72L30.263 29.04H31.4245L34.2398 21.12C34.3754 20.7343 34.6265 20.4004 34.9584 20.164C35.2904 19.9276 35.687 19.8005 36.0938 19.8H37.4062C37.5803 19.8 37.7472 19.7305 37.8703 19.6067C37.9934 19.4829 38.0625 19.315 38.0625 19.14V13.86Z" fill="url(#paint0_linear_35_5)"/>
<defs>
<linearGradient id="paint0_linear_35_5" x1="37.6415" y1="3.01851e-07" x2="13.6404" y2="38.5344" gradientUnits="userSpaceOnUse">
<stop stop-color="#505FFF"/>
<stop offset="1" stop-color="#4424BE"/>
</linearGradient>
</defs>
</svg>
