<svg width="42" height="34" viewBox="0 0 42 34" fill="none" xmlns="http://www.w3.org/2000/svg">
<path d="M32.8125 15.9497C32.8125 16.4696 32.6585 16.9779 32.3701 17.4102C32.0817 17.8425 31.6717 18.1794 31.192 18.3784C30.7124 18.5773 30.1846 18.6294 29.6754 18.528C29.1662 18.4265 28.6985 18.1762 28.3313 17.8085C27.9642 17.4409 27.7142 16.9725 27.6129 16.4625C27.5117 15.9526 27.5636 15.4241 27.7623 14.9437C27.961 14.4634 28.2974 14.0528 28.7291 13.764C29.1608 13.4751 29.6683 13.3209 30.1875 13.3209C30.8837 13.3209 31.5514 13.5979 32.0437 14.0909C32.5359 14.5839 32.8125 15.2525 32.8125 15.9497ZM25.5938 6.74898H19.0312C18.5091 6.74898 18.0083 6.9567 17.6391 7.32644C17.2699 7.69619 17.0625 8.19767 17.0625 8.72056C17.0625 9.24346 17.2699 9.74494 17.6391 10.1147C18.0083 10.4844 18.5091 10.6921 19.0312 10.6921H25.5938C26.1159 10.6921 26.6167 10.4844 26.9859 10.1147C27.3551 9.74494 27.5625 9.24346 27.5625 8.72056C27.5625 8.19767 27.3551 7.69619 26.9859 7.32644C26.6167 6.9567 26.1159 6.74898 25.5938 6.74898ZM42 14.6353V19.8929C42.0002 21.1 41.5266 22.2588 40.6813 23.1194C39.8361 23.98 38.6869 24.4734 37.4817 24.4932L34.9781 31.5137C34.7504 32.152 34.3311 32.7041 33.7777 33.0944C33.2244 33.4848 32.564 33.6942 31.8872 33.694H29.8003C29.1235 33.6942 28.4631 33.4848 27.9098 33.0944C27.3564 32.7041 26.9371 32.152 26.7094 31.5137L26.5453 31.0652H18.0748L17.9107 31.5137C17.6832 32.1512 17.2647 32.7028 16.7123 33.093C16.1599 33.4833 15.5007 33.6931 14.8247 33.694H12.7378C12.061 33.6942 11.4006 33.4848 10.8473 33.0944C10.2939 32.7041 9.87463 32.152 9.64687 31.5137L7.62891 25.8536C5.90404 23.8654 4.73021 21.4588 4.22461 18.8742C4.03728 19.1809 3.93794 19.5334 3.9375 19.8929C3.9375 20.4158 3.73008 20.9172 3.36087 21.287C2.99165 21.6567 2.49089 21.8645 1.96875 21.8645C1.44661 21.8645 0.945846 21.6567 0.576634 21.287C0.207421 20.9172 0 20.4158 0 19.8929C0.00186254 18.6536 0.391594 17.4462 1.11438 16.4403C1.83716 15.4344 2.85662 14.6808 4.02937 14.2854C4.44298 10.5891 6.201 7.17481 8.968 4.69384C11.735 2.21287 15.3173 0.838949 19.0312 0.834229H36.0938C36.6159 0.834229 37.1167 1.04195 37.4859 1.41169C37.8551 1.78144 38.0625 2.28292 38.0625 2.80581C38.0625 3.32871 37.8551 3.83019 37.4859 4.19993C37.1167 4.56968 36.6159 4.7774 36.0938 4.7774H34.4531C36.0341 6.21877 37.2912 7.98005 38.1412 9.94459L38.2102 10.1089C39.2712 10.2994 40.2318 10.8569 40.9244 11.6841C41.6171 12.5113 41.9977 13.5558 42 14.6353ZM38.0625 14.6353C38.0625 14.461 37.9934 14.2939 37.8703 14.1706C37.7472 14.0474 37.5803 13.9781 37.4062 13.9781H36.8058C36.3866 13.9781 35.9783 13.8441 35.6404 13.5955C35.3025 13.347 35.0527 12.997 34.9273 12.5964C34.2146 10.3282 32.7979 8.34681 30.8832 6.94056C28.9685 5.53431 26.6557 4.77651 24.2812 4.7774H19.0312C16.8661 4.77724 14.7477 5.408 12.9344 6.59277C11.1211 7.77754 9.69123 9.46512 8.81915 11.4497C7.94708 13.4343 7.6705 15.6301 8.02315 17.7694C8.37579 19.9087 9.34242 21.899 10.8052 23.4976C10.9827 23.6905 11.1194 23.9174 11.2071 24.1646L13.2005 29.7508H14.362L14.8329 28.4364C14.9685 28.0524 15.2195 27.7198 15.5515 27.4844C15.8834 27.2491 16.2801 27.1225 16.6868 27.122H27.9382C28.3449 27.1225 28.7416 27.2491 29.0735 27.4844C29.4055 27.7198 29.6565 28.0524 29.7921 28.4364L30.263 29.7508H31.4245L34.2398 21.8645C34.3754 21.4804 34.6265 21.1479 34.9584 20.9125C35.2904 20.6771 35.687 20.5505 36.0938 20.5501H37.4062C37.5803 20.5501 37.7472 20.4808 37.8703 20.3576C37.9934 20.2343 38.0625 20.0672 38.0625 19.8929V14.6353Z" fill="url(#paint0_linear_35_5)"/>
<defs>
<linearGradient id="paint0_linear_35_5" x1="37.6415" y1="0.834229" x2="13.7875" y2="39.2961" gradientUnits="userSpaceOnUse">
<stop stop-color="#717DFF"/>
<stop offset="1" stop-color="#7950F2"/>
</linearGradient>
</defs>
</svg>
