<svg width="16" height="16" viewBox="0 0 16 16" fill="none" xmlns="http://www.w3.org/2000/svg">
<path d="M8 4.17162C7.24262 4.17162 6.50225 4.39615 5.87252 4.81682C5.24278 5.23749 4.75196 5.8354 4.46213 6.53494C4.17229 7.23449 4.09646 8.00425 4.24421 8.74688C4.39197 9.48951 4.75668 10.1717 5.29223 10.7071C5.82778 11.2425 6.5101 11.6071 7.25293 11.7548C7.99575 11.9025 8.76571 11.8267 9.46544 11.537C10.1652 11.2472 10.7632 10.7565 11.184 10.1269C11.6048 9.49736 11.8294 8.75718 11.8294 8C11.8282 6.98501 11.4244 6.01193 10.7065 5.29422C9.98859 4.57651 9.01525 4.17279 8 4.17162ZM8 10.0614C7.59218 10.0614 7.19352 9.94053 6.85443 9.71402C6.51534 9.48751 6.25106 9.16555 6.09499 8.78888C5.93893 8.4122 5.89809 7.99771 5.97765 7.59783C6.05721 7.19795 6.2536 6.83064 6.54197 6.54235C6.83034 6.25405 7.19775 6.05772 7.59773 5.97818C7.99771 5.89863 8.41231 5.93946 8.78908 6.09548C9.16586 6.25151 9.48789 6.51573 9.71446 6.85473C9.94104 7.19373 10.062 7.59229 10.062 8C10.062 8.54673 9.84473 9.07106 9.45803 9.45765C9.07134 9.84425 8.54687 10.0614 8 10.0614ZM14.775 8.05816V7.94184L15.806 6.65271C15.8926 6.54469 15.9525 6.41786 15.981 6.28243C16.0096 6.14701 16.0059 6.00678 15.9702 5.87304C15.7842 5.1715 15.5061 4.49764 15.1432 3.86903C15.0733 3.74916 14.9762 3.64744 14.8596 3.5721C14.7431 3.49676 14.6104 3.44993 14.4724 3.4354L12.8316 3.25134L12.7499 3.16962L12.5658 1.52857C12.5511 1.39071 12.5042 1.25822 12.4289 1.14183C12.3535 1.02545 12.2518 0.92842 12.132 0.858605C11.5032 0.49468 10.8289 0.215675 10.1268 0.0288777C9.99289 -0.00621191 9.85263 -0.00936972 9.7173 0.0196588C9.58197 0.0486872 9.45535 0.10909 9.34764 0.196001L8.05818 1.22672H7.94182L6.65236 0.196001C6.54431 0.109481 6.41745 0.0495468 6.28199 0.0210294C6.14653 -0.00748787 6.00626 -0.00379075 5.87249 0.0318227C5.17058 0.21898 4.49655 0.498227 3.86796 0.862286C3.74853 0.931813 3.64707 1.02838 3.57174 1.14422C3.49641 1.26007 3.4493 1.39196 3.43422 1.52931L3.25011 3.16962L3.16837 3.25134L1.5269 3.4354C1.38899 3.45004 1.25648 3.49692 1.14006 3.57226C1.02364 3.64759 0.92659 3.74926 0.856756 3.86903C0.49376 4.49785 0.215676 5.17196 0.0297603 5.87378C-0.0057408 6.0074 -0.00937642 6.14749 0.019146 6.28278C0.0476683 6.41807 0.107552 6.54477 0.193981 6.65271L1.22496 7.94184V8.05816L0.193981 9.34729C0.107438 9.45531 0.0474889 9.58214 0.0189642 9.71757C-0.00956049 9.85299 -0.00586241 9.99322 0.0297603 10.127C0.217198 10.8287 0.496766 11.5026 0.861175 12.131C0.930648 12.2503 1.02712 12.3517 1.14286 12.427C1.2586 12.5023 1.39038 12.5494 1.52763 12.5646L3.16837 12.7472L3.25011 12.8289L3.43422 14.4714C3.44886 14.6093 3.49576 14.7418 3.57111 14.8582C3.64646 14.9746 3.74816 15.0716 3.86796 15.1414C4.49679 15.5053 5.17108 15.7843 5.87323 15.9711C6.00711 16.0062 6.14737 16.0094 6.2827 15.9803C6.41804 15.9513 6.54465 15.8909 6.65236 15.804L7.94182 14.7733H8.05818L9.34764 15.804C9.45569 15.8905 9.58255 15.9505 9.71801 15.979C9.85347 16.0075 9.99374 16.0038 10.1275 15.9682C10.8292 15.7822 11.5033 15.5042 12.132 15.1414C12.2517 15.072 12.3535 14.9755 12.4291 14.8597C12.5047 14.7438 12.552 14.6119 12.5673 14.4744L12.7499 12.8341L12.8316 12.7523L14.4731 12.5646C14.6106 12.5494 14.7426 12.502 14.8585 12.4265C14.9744 12.3509 15.0709 12.2492 15.1403 12.1295C15.5043 11.5008 15.7834 10.8267 15.9702 10.1247C16.0055 9.99134 16.009 9.85153 15.9805 9.71652C15.952 9.58151 15.8922 9.45506 15.806 9.34729L14.775 8.05816ZM12.9988 7.69815C13.0106 7.89921 13.0106 8.10079 12.9988 8.30185C12.9856 8.52042 13.0541 8.73609 13.191 8.90703L14.1366 10.0887C14.0473 10.3528 13.9408 10.6108 13.8177 10.861L12.3132 11.0281C12.0954 11.053 11.8946 11.158 11.7498 11.3226C11.6161 11.4733 11.4734 11.6159 11.3227 11.7496C11.158 11.8943 11.0531 12.095 11.0281 12.3128L10.8617 13.8162C10.6115 13.9397 10.3535 14.0467 10.0892 14.1364L8.90727 13.1904C8.75041 13.0653 8.55562 12.9972 8.35495 12.9975C8.33728 12.9975 8.31961 12.9975 8.30193 12.9975C8.10082 13.0093 7.89918 13.0093 7.69807 12.9975C7.47959 12.9846 7.26403 13.0527 7.09273 13.1889L5.91079 14.135C5.64658 14.0457 5.38852 13.9392 5.13828 13.8162L4.97112 12.3121C4.94621 12.0943 4.84122 11.8936 4.67655 11.7489C4.52583 11.6151 4.38321 11.4725 4.24943 11.3219C4.10468 11.1572 3.9039 11.0523 3.68607 11.0274L2.18231 10.861C2.05871 10.6108 1.9517 10.3528 1.86197 10.0887L2.80752 8.90703C2.94439 8.73609 3.01289 8.52042 2.99973 8.30185C2.98795 8.10079 2.98795 7.89921 2.99973 7.69815C3.01289 7.47958 2.94439 7.26391 2.80752 7.09297L1.86344 5.91133C1.9527 5.64719 2.05922 5.3892 2.18231 5.13902L3.68681 4.9719C3.90463 4.947 4.10542 4.84204 4.25017 4.67741C4.38394 4.52673 4.52657 4.38414 4.67729 4.2504C4.84196 4.10569 4.94695 3.90495 4.97185 3.68719L5.13828 2.18381C5.38849 2.06025 5.64654 1.95327 5.91079 1.86355L7.09273 2.8096C7.26403 2.9458 7.47959 3.01396 7.69807 3.00102C7.89918 2.98924 8.10082 2.98924 8.30193 3.00102C8.52046 3.01439 8.73617 2.94617 8.90727 2.8096L10.0892 1.86355C10.3535 1.95327 10.6115 2.06025 10.8617 2.18381L11.0289 3.68792C11.0538 3.90569 11.1588 4.10643 11.3235 4.25114C11.4742 4.38488 11.6168 4.52747 11.7506 4.67815C11.8953 4.84278 12.0961 4.94774 12.3139 4.97264L13.8177 5.13902C13.9413 5.38916 14.0483 5.64715 14.138 5.91133L13.1925 7.09297C13.0551 7.2637 12.9861 7.47939 12.9988 7.69815Z" fill="#75777B"/>
</svg>
