<svg width="21" height="20" viewBox="0 0 21 20" fill="none" xmlns="http://www.w3.org/2000/svg">
<path d="M10.75 20C12.7278 20 14.6612 19.4135 16.3057 18.3147C17.9502 17.2159 19.2319 15.6541 19.9888 13.8268C20.7457 11.9996 20.9437 9.98891 20.5578 8.0491C20.172 6.10929 19.2196 4.32746 17.8211 2.92893C16.4225 1.53041 14.6407 0.578003 12.7009 0.192153C10.7611 -0.1937 8.75042 0.00433264 6.92316 0.761209C5.0959 1.51808 3.53412 2.79981 2.4353 4.4443C1.33649 6.08879 0.749999 8.02219 0.749999 10C0.75294 12.6513 1.80745 15.1931 3.68218 17.0678C5.5569 18.9425 8.09874 19.9971 10.75 20ZM10.75 2.22223C12.2883 2.22223 13.792 2.67839 15.0711 3.53302C16.3501 4.38765 17.347 5.60237 17.9357 7.02358C18.5244 8.44478 18.6784 10.0086 18.3783 11.5174C18.0782 13.0261 17.3375 14.412 16.2497 15.4997C15.162 16.5875 13.7761 17.3282 12.2674 17.6283C10.7586 17.9284 9.19477 17.7744 7.77357 17.1857C6.35237 16.5971 5.13765 15.6002 4.28301 14.3211C3.42838 13.0421 2.97222 11.5383 2.97222 10C2.97443 7.93789 3.79458 5.96086 5.25271 4.50272C6.71085 3.04458 8.68788 2.22443 10.75 2.22223ZM7.00092 10.0454C6.89734 9.94215 6.81515 9.81949 6.75907 9.68443C6.70299 9.54937 6.67412 9.40457 6.67412 9.25834C6.67412 9.1121 6.70299 8.9673 6.75907 8.83224C6.81515 8.69718 6.89734 8.57453 7.00092 8.4713L9.96388 5.50834C10.0671 5.40475 10.1898 5.32256 10.3248 5.26648C10.4599 5.2104 10.6047 5.18154 10.7509 5.18154C10.8972 5.18154 11.042 5.2104 11.177 5.26648C11.3121 5.32256 11.4347 5.40475 11.538 5.50834L14.5009 8.4713C14.6043 8.57466 14.6863 8.69735 14.7422 8.83239C14.7981 8.96743 14.8269 9.11217 14.8269 9.25834C14.8269 9.4045 14.7981 9.54924 14.7422 9.68428C14.6863 9.81932 14.6043 9.94202 14.5009 10.0454C14.3976 10.1487 14.2749 10.2307 14.1398 10.2866C14.0048 10.3426 13.8601 10.3714 13.7139 10.3714C13.5677 10.3714 13.423 10.3426 13.2879 10.2866C13.1529 10.2307 13.0302 10.1487 12.9268 10.0454L11.8611 8.98148L11.8611 13.7037C11.8611 13.9984 11.744 14.281 11.5357 14.4894C11.3273 14.6978 11.0447 14.8148 10.75 14.8148C10.4553 14.8148 10.1727 14.6978 9.96432 14.4894C9.75595 14.281 9.63889 13.9984 9.63889 13.7037L9.63889 8.98148L8.57315 10.0482C8.46977 10.1513 8.34708 10.233 8.2121 10.2887C8.07711 10.3444 7.93248 10.3729 7.78646 10.3726C7.64044 10.3724 7.49591 10.3433 7.36112 10.2872C7.22633 10.231 7.10393 10.1489 7.00092 10.0454Z" fill="#CA052C"/>
</svg>
